<svg fill="none" height="19" viewBox="0 0 25 19" width="25" xmlns="http://www.w3.org/2000/svg"><g fill="#ecc879"><path d="m11.0681 2.60729-1.64581-2.506296c-.04107-.0630162-.11119-.100994-.18606-.100994s-.14499.0379778-.18634.100994l-1.64577 2.506296c-.04526.0692-.04917.15754-.01034.2304.03883.07315.11454.11844.19668.11844h.6202v1.03582c0 .12435.10001.22506.22322.22506h1.60442c.1235 0 .2235-.10071.2235-.22506v-1.03582h.6199c.0822 0 .1579-.04529.1967-.11844.0388-.07286.0349-.1612-.0103-.2304z"/><path d="m6.48011 5.22887-1.13938-1.70884c-.02843-.04296-.07698-.06886-.12881-.06886s-.10038.0259-.129.06886l-1.13939 1.70884c-.03133.04718-.03404.10741-.00715.15709.02688.04987.0793.08075.13616.08075h.42937v.70625c0 .08478.06924.15345.15454.15345h1.11075c.08549 0 .15473-.06867.15473-.15345v-.70625h.42918c.05686 0 .10928-.03088.13616-.08075.02688-.04968.02418-.10991-.00716-.15709z"/><path d="m12.5735 12.1454c-.5892.0387-1.189-.0299-1.7532-.204v1.1037c0 .7908.6428 1.4342 1.4328 1.4342.7903 0 1.4331-.6434 1.4331-1.4342v-1.1037c-.3605.1112-.7362.1794-1.1127.204z"/><path d="m20.0409 3.65903-2.3546-3.517297c-.0587-.0884355-.1591-.141733-.2662-.141733s-.2074.0532975-.2666.141733l-2.3546 3.517297c-.0647.09712-.0703.22109-.0148.32334.0556.10265.1639.16622.2814.16622h.8873v1.45366c0 .1745.1431.31584.3194.31584h2.2955c.1766 0 .3197-.14134.3197-.31584v-1.45366h.8869c.1175 0 .2259-.06357.2814-.16622.0556-.10225.05-.22622-.0148-.32334z"/><path d="m18.6535 6.3457h-2.4618c-.1274 0-.2308.15963-.2308.35651 0 .19689.1034.35652.2308.35652h2.4618c.1275 0 .2308-.15963.2308-.35652 0-.19688-.1033-.35651-.2308-.35651z"/><path d="m18.6535 9.98242h-2.4618c-.1274 0-.2308.11178-.2308.24958s.1034.2495.2308.2495h2.4618c.1275 0 .2308-.1117.2308-.2495s-.1033-.24958-.2308-.24958z"/><path d="m18.6535 12.9766h-2.4618c-.1274 0-.2308.0638-.2308.1426 0 .0787.1034.1426.2308.1426h2.4618c.1275 0 .2308-.0639.2308-.1426 0-.0788-.1033-.1426-.2308-.1426z"/><path d="m18.6535 7.62891h-2.4618c-.1274 0-.2308.14366-.2308.32086 0 .17719.1034.32086.2308.32086h2.4618c.1275 0 .2308-.14367.2308-.32086 0-.1772-.1033-.32086-.2308-.32086z"/><path d="m18.6535 11.0508h-2.4618c-.1274 0-.2308.0958-.2308.2139s.1034.2139.2308.2139h2.4618c.1275 0 .2308-.0958.2308-.2139s-.1033-.2139-.2308-.2139z"/><path d="m18.6535 13.832h-2.4618c-.1274 0-.2308.0479-.2308.107 0 .059.1034.1069.2308.1069h2.4618c.1275 0 .2308-.0479.2308-.1069 0-.0591-.1033-.107-.2308-.107z"/><path d="m18.6535 8.8418h-2.4618c-.1274 0-.2308.1277-.2308.28521 0 .1575.1034.28521.2308.28521h2.4618c.1275 0 .2308-.12771.2308-.28521 0-.15751-.1033-.28521-.2308-.28521z"/><path d="m18.6535 14.6172h-2.4618c-.1274 0-.2308.0319-.2308.0713s.1034.0713.2308.0713h2.4618c.1275 0 .2308-.0319.2308-.0713s-.1033-.0713-.2308-.0713z"/></g><path d="m18.418 6.69238c1.118-.32314 2.303.23192 2.7685 1.29785l1.3447 3.08207c.2816.6454.379 1.5471.2891 2.3896-.0836.7827-.3366 1.5845-.8262 2.0938l-.1015.0976c-.5891.5296-1.2841.7403-1.9766.8203l.0039.0254h-.2646c-.057.0041-.1142.0091-.1709.0117-.4144.0195-.8312.0048-1.2207-.0087-.0357-.0013-.0713-.0018-.1065-.003h-1.0322l-.2129.0137-.0029-.0137h-9.26565l-.00293.0137-.21289-.0137h-1.03222c-.03519.0012-.07077.0017-.10645.003-.38947.0135-.80631.0282-1.2207.0087-.0567-.0026-.11392-.0076-.1709-.0117h-.30859l.0039-.0302c-.62575-.0775-1.2518-.2648-1.79785-.7012l-.13476-.1143c-.55602-.5001-.83856-1.3566-.92774-2.1914-.08991-.8425.00756-1.7443.28906-2.3896l1.34473-3.08207c.46546-1.06593 1.65054-1.6209 2.76856-1.29785l.77441.22364c.83018.2399 1.2547 1.15996.89844 1.94726l-.2002.44336c-.25678.56715-.91682.82266-1.4873.58496l-.66797 1.5918c.17219-.0504.33729-.075.49512-.0772.37505-.005.68338.1172.92187.2784.23548.1591.40494.3567.51367.5097.00259.0037.00435.0081.00684.0118.12431-.0657.25147-.1279.38183-.1836.70963-.3033 1.4541-.5351 2.21485-.6895l.10257-.0205.0927.0479c.0358.0181.0725.0361.1094.0537l.1719.081v1.5508c.0002.9887.8046 1.7929 1.792 1.793.987-.0001 1.7908-.8043 1.791-1.793v-1.5508l.1719-.081c.0372-.0177.0736-.0356.1093-.0537l.0928-.0479.1026.0205c.7608.1544 1.5061.3862 2.2158.6895.1412.0603.278.1292.4121.2011.0065-.0094.0126-.0195.0195-.0293.1088-.153.2781-.3505.5137-.5097.2385-.1612.5468-.2834.9219-.2784.1575.0022.3223.0269.4941.0772l-.668-1.5918c-.5702.2371-1.2296-.0181-1.4863-.58496l-.2002-.44336c-.3562-.78727.0683-1.70736.8985-1.94726zm2.4941 1.41797c-.4051-.92786-1.4375-1.4113-2.4111-1.12988l-.7744.22363-.1192.04102c-.575.2379-.852.91236-.5888 1.49414l.2002.44336c.1934.42743.6977.6171 1.125.42285l.246-.11231 1.0909 2.59964c-1.6596-1.1008-2.4001.4951-2.4073.5107-.0264-.0053-.0538-.0088-.081-.0137-.1831-.1086-.3741-.2063-.5723-.291-.6908-.2952-1.4162-.5205-2.1572-.6709-.0386.0196-.0781.0381-.1172.0567v1.3613l-.0107.2129c-.1071 1.0544-.9989 1.8798-2.0801 1.8799l-.2139-.0108c-.9833-.1003-1.7672-.8849-1.8672-1.8691l-.0107-.2129v-1.3613c-.0392-.0186-.0786-.037-.1172-.0567-.74092.1504-1.46645.3757-2.15723.6709-.20447.0874-.4015.188-.58984.3008-.00646.0013-.01312.0026-.01953.0039-.00974-.0211-.75103-1.6105-2.40821-.5107l1.0918-2.59964.24609.11231c.40056.18214.86868.02662 1.08497-.3457l.04003-.07715.2002-.44336c.26325-.5818-.01377-1.25623-.58887-1.49414l-.11914-.04102-.77441-.22363c-.97364-.28132-2.00611.20203-2.41114 1.12988l-1.34374 3.08105-.08887.2315c-.40351 1.2105-.23775 3.2071.65234 4.0078.98513.8857 2.32229.8094 3.52637.7685h11.77928c1.1555.0392 2.4334.111 3.4053-.666l.1211-.1025c.9496-.854 1.0741-3.0691.5635-4.2393z" fill="#1e1e1e"/><path d="m16.62 12.2987c1.597.6826 2.7303 2.177 2.9577 3.9001h-14.64621c.2274-1.7231 1.36062-3.2175 2.95766-3.9001.69088-.2953 1.41589-.5209 2.15695-.6712.0387.0197.0777.0387.1169.0573v1.3607c0 1.1544.9382 2.0935 2.0917 2.0935 1.1532 0 2.0915-.9392 2.0915-2.0935v-1.3607c.0391-.0186.0782-.0376.1169-.0573.741.1503 1.466.3759 2.1569.6712z" fill="#ecc879"/><path d="m7.58031 15.3344c.50276-1.3897 1.03582-2.4087 2.17998-3.1627-.76673.3354-1.77306.2875-2.4809.4315 0 0-.7396-1.6171-2.40782-.51l1.09107-2.60036.24672.11219c.42724.19428.93113.00504 1.12456-.4224l.20068-.44337c.28094-.62069-.05391-1.34607-.70868-1.53526l-.77454-.22386c-.97377-.28145-2.00548.20244-2.41044 1.13052l-1.34453 3.08114c-.51063 1.1702-.38568 3.3845.56391 4.2385 1.27431 1.1459 3.1372.6807 4.54002.7667z" fill="#ecc879"/><path d="m16.9724 15.3344c-.5028-1.3897-1.0358-2.4087-2.18-3.1627.7667.3354 1.7731.2875 2.4809.4315 0 0 .7396-1.6171 2.4078-.51l-1.0911-2.60036-.2467.11219c-.4272.19428-.9311.00504-1.1245-.4224l-.2007-.44337c-.2809-.62069.0539-1.34607.7087-1.53526l.7745-.22386c.9738-.28145 2.0055.20244 2.4104 1.13052l1.3446 3.08114c.5106 1.1702.3857 3.3845-.5639 4.2385-1.2743 1.1459-3.1372.6807-4.54.7667z" fill="#ecc879"/><circle cx="12.255" cy="7.95419" fill="#ecc879" r="3.45028"/></svg>